<?xml version="1.0" encoding="UTF-8"?>
<!DOCTYPE svg PUBLIC "-//W3C//DTD SVG 1.1//EN" "http://www.w3.org/Graphics/SVG/1.1/DTD/svg11.dtd">
<svg xmlns="http://www.w3.org/2000/svg" version="1.1" width="128px" height="128px" style="shape-rendering:geometricPrecision; text-rendering:geometricPrecision; image-rendering:optimizeQuality; fill-rule:evenodd; clip-rule:evenodd" xmlns:xlink="http://www.w3.org/1999/xlink">
<g><path style="opacity:0.981" fill="#ff3f56" d="M 52.5,12.5 C 68.6004,10.6367 83.9338,13.1367 98.5,20C 100.57,20.9476 102.07,22.4476 103,24.5C 105.253,33.4778 104.087,41.9778 99.5,50C 94.1542,49.1148 88.8208,47.7814 83.5,46C 78.5,45.3333 73.5,45.3333 68.5,46C 68.0426,46.414 67.7093,46.914 67.5,47.5C 77.428,46.5158 87.0947,48.3492 96.5,53C 108.068,62.0503 112.235,73.8836 109,88.5C 104.764,101.069 96.2637,109.236 83.5,113C 67.8474,116.285 52.1807,116.285 36.5,113C 27.0015,111.852 21.1681,106.686 19,97.5C 15.8924,81.0176 22.5591,71.6842 39,69.5C 49.9848,69.4881 57.6515,74.4881 62,84.5C 62.6171,79.8918 61.1171,76.0585 57.5,73C 48.7498,67.3101 39.4164,66.1434 29.5,69.5C 23.2531,66.335 19.4198,61.335 18,54.5C 15.3787,35.781 22.8787,22.9477 40.5,16C 44.5431,14.5086 48.5431,13.3419 52.5,12.5 Z"/></g>
</svg>
